<?xml version="1.0" encoding="utf-8"?>
<!-- Generator: Adobe Illustrator 24.2.3, SVG Export Plug-In . SVG Version: 6.00 Build 0)  -->
<svg version="1.1" id="Layer_1" xmlns="http://www.w3.org/2000/svg" xmlns:xlink="http://www.w3.org/1999/xlink" x="0px" y="0px"
	 viewBox="0 0 148.18 94.89" enable-background="new 0 0 148.18 94.89" xml:space="preserve">
<g>
	<polyline fill="#2380B6" points="54.76,50.01 66.38,50.03 67.16,49.24 53.91,49.26 	"/>
	<linearGradient id="SVGID_1_" gradientUnits="userSpaceOnUse" x1="63.3578" y1="51.6976" x2="43.2386" y2="34.2867">
		<stop  offset="0" style="stop-color:#0D0E12"/>
		<stop  offset="0.1554" style="stop-color:#23161B;stop-opacity:0.8446"/>
		<stop  offset="0.427" style="stop-color:#451B25;stop-opacity:0.573"/>
		<stop  offset="0.6682" style="stop-color:#5E1A29;stop-opacity:0.3318"/>
		<stop  offset="0.8675" style="stop-color:#6F162B;stop-opacity:0.1325"/>
		<stop  offset="1" style="stop-color:#75132C;stop-opacity:0"/>
	</linearGradient>
	<polyline fill="url(#SVGID_1_)" points="54.76,50.01 66.38,50.03 67.16,49.24 53.91,49.26 	"/>
	<radialGradient id="SVGID_2_" cx="68.9033" cy="58.2443" r="48.8076" gradientUnits="userSpaceOnUse">
		<stop  offset="4.950500e-03" style="stop-color:#63C3D3"/>
		<stop  offset="1" style="stop-color:#2380B6"/>
	</radialGradient>
	<path fill="url(#SVGID_2_)" d="M74.56,57.94v-7.89v0l-8.19-0.01l-5.58,5.58c0,0-2.71-2.66-6-5.57c0,0-3.98,4.01-6.07,5.59
		c-3.48,2.64-7.12,3.05-10.55,0c-1.67-1.49-2.43-3.57-2.37-5.66L8.32,49.92C8.66,67.34,20.9,80.11,32.55,84.06
		c11.67,3.96,26.97,2.4,42.11-14.29c-1.84-1.81-3.77-3.84-5.83-6.09L74.56,57.94z"/>
	<radialGradient id="SVGID_3_" cx="48.0823" cy="66.7945" r="30.4968" gradientUnits="userSpaceOnUse">
		<stop  offset="0.0359" style="stop-color:#63C3D3"/>
		<stop  offset="1" style="stop-color:#2380B6"/>
	</radialGradient>
	<path fill="url(#SVGID_3_)" d="M38.18,44.45c1.78-1.78,3.91-2.31,6.03-1.91V14.31c-21.18,0-35.55,17.61-35.89,35.03l27.53-0.05
		C36.05,47.52,36.84,45.79,38.18,44.45z"/>
	<radialGradient id="SVGID_4_" cx="68.5365" cy="56.4425" r="47.4615" gradientUnits="userSpaceOnUse">
		<stop  offset="4.950500e-03" style="stop-color:#63C3D3"/>
		<stop  offset="0.995" style="stop-color:#2380B6"/>
	</radialGradient>
	<path fill="url(#SVGID_4_)" d="M35.85,49.29L8.32,49.34c0,0.1-0.01,0.19-0.01,0.29c0,0.1,0.01,0.19,0.01,0.29l27.48,0.05
		C35.81,49.75,35.82,49.52,35.85,49.29z"/>
	<radialGradient id="SVGID_5_" cx="48.0823" cy="67.9127" r="30.6938" gradientUnits="userSpaceOnUse">
		<stop  offset="0.0359" style="stop-color:#63C3D3"/>
		<stop  offset="1" style="stop-color:#2380B6"/>
	</radialGradient>
	<path fill="url(#SVGID_5_)" d="M48.74,44.79c1.21,1,4.65,4.02,6.02,5.22l12.41-0.77l7.4-7.4v-11.9c0.09-0.09,0.17-0.18,0.25-0.27
		c-3.44-3.66-6.74-6.58-9.98-8.85c-0.12-0.08-0.24-0.16-0.36-0.25c-0.31-0.21-0.62-0.42-0.93-0.62c-0.05-0.03-0.1-0.07-0.16-0.1
		c-4.08-2.63-8.11-4.23-12.27-5c-2.26-0.39-4.53-0.54-6.91-0.54c0,0,0,0,0,0v28.23C45.77,42.84,47.32,43.62,48.74,44.79z"/>
	<linearGradient id="SVGID_6_" gradientUnits="userSpaceOnUse" x1="69.3141" y1="44.2476" x2="49.195" y2="26.8368">
		<stop  offset="0" style="stop-color:#020203"/>
		<stop  offset="0.0114" style="stop-color:#030405;stop-opacity:0.9886"/>
		<stop  offset="0.2271" style="stop-color:#1A2935;stop-opacity:0.7729"/>
		<stop  offset="0.4302" style="stop-color:#25455D;stop-opacity:0.5698"/>
		<stop  offset="0.6146" style="stop-color:#295D80;stop-opacity:0.3854"/>
		<stop  offset="0.7769" style="stop-color:#28709C;stop-opacity:0.2231"/>
		<stop  offset="0.9109" style="stop-color:#257CAF;stop-opacity:0.0891"/>
		<stop  offset="1" style="stop-color:#2380B6;stop-opacity:0"/>
	</linearGradient>
	<path opacity="0.85" fill="url(#SVGID_6_)" d="M48.49,44.5c2.02,1.69,8.3,7.31,6.78,5.96l11.65-1.51l7.4-7.4l0.25-11.27
		c0.09-0.09,0.16-0.52,0.25-0.61c-3.44-3.66-6.98-6.86-10.23-9.13c-0.12-0.08-0.24-0.16-0.36-0.25c-0.31-0.21-0.62-0.42-0.93-0.62
		c-0.05-0.03-0.1-0.07-0.15-0.1c-4.08-2.63-8.11-4.23-12.27-5c-2.26-0.39-4.53-0.54-6.91-0.54c0,0,0,0,0,0v28.23
		C45.52,42.55,47.09,43.33,48.49,44.5z"/>
	
		<radialGradient id="SVGID_7_" cx="-377.576" cy="208.3562" r="48.6225" gradientTransform="matrix(-1 0 0 -1 -296.6371 253.8834)" gradientUnits="userSpaceOnUse">
		<stop  offset="4.950500e-03" style="stop-color:#63C3D3"/>
		<stop  offset="1" style="stop-color:#2380B6"/>
	</radialGradient>
	<path fill="url(#SVGID_7_)" d="M75.07,41.33v7.89v0l8.19,0.01l5.58-5.58c0,0,2.74,2.68,6.04,5.6l0.84,0
		c1.37-1.2,3.96-3.48,5.17-4.47c3.34-2.75,7.47-3.43,10.56-0.34c1.34,1.34,2.13,3.07,2.33,4.84l27.53,0.05
		c0.01-18.5-11.85-31.49-23.91-34.66c-13.06-3.43-28.33-0.34-42.42,14.56c1.84,1.81,3.77,4.09,5.83,6.35L75.07,41.33z"/>
	
		<radialGradient id="SVGID_8_" cx="-398.1898" cy="221.4107" r="30.497" gradientTransform="matrix(-1 0 0 -1 -296.6371 253.8834)" gradientUnits="userSpaceOnUse">
		<stop  offset="0.0359" style="stop-color:#63C3D3"/>
		<stop  offset="1" style="stop-color:#2380B6"/>
	</radialGradient>
	<path fill="url(#SVGID_8_)" d="M111.46,55.64c-1.96,1.75-4,2.35-6.03,2.06v27.26c3.51-0.07,7.18-0.62,11.11-1.57
		c10.79-2.59,24.44-16.05,24.77-33.47l-27.48,0.05C113.89,52.07,113.12,54.15,111.46,55.64z"/>
	
		<radialGradient id="SVGID_9_" cx="-377.5759" cy="208.262" r="47.4613" gradientTransform="matrix(-1 0 0 -1 -296.6371 253.8834)" gradientUnits="userSpaceOnUse">
		<stop  offset="4.950500e-03" style="stop-color:#63C3D3"/>
		<stop  offset="0.995" style="stop-color:#2380B6"/>
	</radialGradient>
	<path fill="url(#SVGID_9_)" d="M141.31,49.34l-27.53-0.05c0.03,0.23,0.04,0.45,0.04,0.68l27.48-0.05c0-0.1,0.01-0.19,0.01-0.29
		C141.32,49.54,141.31,49.44,141.31,49.34z"/>
	
		<radialGradient id="SVGID_10_" cx="-398.1898" cy="221.4105" r="30.497" gradientTransform="matrix(-1 0 0 -1 -296.6371 253.8834)" gradientUnits="userSpaceOnUse">
		<stop  offset="0.0359" style="stop-color:#63C3D3"/>
		<stop  offset="1" style="stop-color:#2380B6"/>
	</radialGradient>
	<path fill="url(#SVGID_10_)" d="M104.42,57.48c-1.18-0.34-2.35-0.97-3.51-1.85c-2.09-1.58-6.07-5.59-6.07-5.59s0.02-0.02,0.04-0.04
		l-12.41,0.02l-7.4,7.4v11.9c-0.09,0.09-0.17,0.18-0.25,0.27c3.44,3.66,6.74,6.58,9.98,8.85c0.12,0.08,0.24,0.16,0.36,0.25
		c0.31,0.21,0.62,0.42,0.93,0.62c0.05,0.03,0.1,0.07,0.15,0.1c4.08,2.63,8.11,4.23,12.27,5c2.26,0.39,4.53,0.54,6.91,0.54
		c0,0,0,0,0,0V57.69C105.09,57.65,104.76,57.58,104.42,57.48z"/>
	
		<linearGradient id="SVGID_11_" gradientUnits="userSpaceOnUse" x1="-376.4652" y1="198.8612" x2="-396.5843" y2="181.4504" gradientTransform="matrix(-1 0 0 -1 -296.6371 253.8834)">
		<stop  offset="0" style="stop-color:#020203"/>
		<stop  offset="0.0114" style="stop-color:#030405;stop-opacity:0.9886"/>
		<stop  offset="0.2271" style="stop-color:#1A2935;stop-opacity:0.7729"/>
		<stop  offset="0.4302" style="stop-color:#25455D;stop-opacity:0.5698"/>
		<stop  offset="0.6146" style="stop-color:#295D80;stop-opacity:0.3854"/>
		<stop  offset="0.7769" style="stop-color:#28709C;stop-opacity:0.2231"/>
		<stop  offset="0.9109" style="stop-color:#257CAF;stop-opacity:0.0891"/>
		<stop  offset="1" style="stop-color:#2380B6;stop-opacity:0"/>
	</linearGradient>
	<path opacity="0.85" fill="url(#SVGID_11_)" d="M104.42,57.48c-1.18-0.34-2.35-0.97-3.51-1.85c-2.09-1.58-6.07-5.59-6.07-5.59
		s0.02-0.02,0.04-0.04l-12.41,0.02l-7.4,7.4v11.9c-0.09,0.09-0.17,0.18-0.25,0.27c3.44,3.66,6.74,6.58,9.98,8.85
		c0.12,0.08,0.24,0.16,0.36,0.25c0.31,0.21,0.62,0.42,0.93,0.62c0.05,0.03,0.1,0.07,0.15,0.1c4.08,2.63,8.11,4.23,12.27,5
		c2.26,0.39,4.53,0.54,6.91,0.54c0,0,0,0,0,0V57.69C105.09,57.65,104.76,57.58,104.42,57.48z"/>
	<path display="none" fill="#FFFFFF" d="M54.76,50.01L54.76,50.01c0.01,0.01,0.03,0.02,0.04,0.04l0,0
		C54.8,50.04,54.78,50.03,54.76,50.01z"/>
	<radialGradient id="SVGID_12_" cx="76.6159" cy="53.1152" r="68.6489" gradientUnits="userSpaceOnUse">
		<stop  offset="4.950500e-03" style="stop-color:#63C3D3"/>
		<stop  offset="0.995" style="stop-color:#2380B6"/>
	</radialGradient>
	<path fill="url(#SVGID_12_)" d="M48.15,56.2c4.74-3.46,26.83-28.3,34.54-33.82l17.72,22.46c0,0-31.74,32.81-40.9,36.77L48.15,56.2z
		"/>
</g>
<g>
	<path fill="#F6F6F6" d="M69.99,62.96c-0.33,0.72-1.05,2.09-2.28,3.33c-1.37,1.4-2.86,2.2-4.61,2.25c-1.55,0.04-3.26-0.68-4.7-2.09
		c-2.74-2.72-2.89-6.59,0.15-9.68c1.05-1.07,2.1-1.67,2.68-1.88l0.69,1.24c-0.7,0.28-1.49,0.72-2.4,1.65
		c-2.21,2.25-2.25,5.08,0.06,7.36c2.34,2.3,5.11,2.25,7.22,0.1c0.77-0.78,1.18-1.42,1.32-1.83l-2.75-2.71l-1.84,1.88l-0.96-0.94
		l2.99-3.04L69.99,62.96z"/>
	<path fill="#F6F6F6" d="M81.03,55.27c-1.55,0.92-3.12,1.78-4.54,2.48c-0.26,0.12-0.51,0.25-0.69,0.43
		c-2.24,2.11-5.69,2.4-8.67-0.53c-2.96-2.91-3.08-6.58-0.63-9.08c2.46-2.5,6.01-2.22,8.73,0.46c2.37,2.33,2.81,4.92,1.84,6.98
		l0.05,0.05c1.13-0.69,2.34-1.47,3.24-2.12L81.03,55.27z M74.05,50.35c-1.85-1.82-4.69-2.73-6.62-0.77
		c-1.98,2.01-1.09,4.83,0.92,6.78c1.94,1.94,4.77,2.59,6.6,0.73C76.83,55.18,76.16,52.42,74.05,50.35z"/>
	<path fill="#F6F6F6" d="M87.5,45.38c-0.21,0.65-0.85,1.74-1.96,2.87c-2.56,2.6-6.12,2.94-9.15-0.03c-2.89-2.84-2.92-6.72-0.11-9.58
		c1.13-1.15,2.09-1.63,2.56-1.79l0.69,1.24c-0.66,0.24-1.46,0.72-2.21,1.48c-2.13,2.16-2.16,4.96,0.27,7.34
		c2.26,2.22,4.99,2.35,7.2,0.1c0.71-0.73,1.29-1.61,1.53-2.32L87.5,45.38z"/>
	<path fill="#F6F6F6" d="M95.48,37.05c-0.33,0.72-1.05,2.09-2.28,3.33c-1.37,1.4-2.86,2.2-4.61,2.25c-1.55,0.04-3.26-0.68-4.7-2.09
		c-2.74-2.72-2.89-6.59,0.15-9.68c1.05-1.07,2.1-1.67,2.68-1.88l0.69,1.24c-0.7,0.28-1.49,0.72-2.4,1.65
		c-2.21,2.24-2.25,5.08,0.06,7.36c2.34,2.3,5.11,2.25,7.22,0.1c0.77-0.78,1.18-1.42,1.32-1.83l-2.75-2.71l-1.84,1.88l-0.96-0.94
		l2.99-3.04L95.48,37.05z"/>
</g>
<g>
</g>
<g>
</g>
<g>
</g>
<g>
</g>
<g>
</g>
<g>
</g>
</svg>
